<svg width="22" height="24" viewBox="0 0 22 24" fill="none" xmlns="http://www.w3.org/2000/svg">
<g clip-path="url(#clip0_1_1508)">
<path d="M6.82812 0C7.65781 0 8.32812 0.670312 8.32812 1.5V3H14.3281V1.5C14.3281 0.670312 14.9984 0 15.8281 0C16.6578 0 17.3281 0.670312 17.3281 1.5V3H19.5781C20.8203 3 21.8281 4.00781 21.8281 5.25V7.5H0.828125V5.25C0.828125 4.00781 1.83594 3 3.07812 3H5.32812V1.5C5.32812 0.670312 5.99844 0 6.82812 0ZM0.828125 9H21.8281V21.75C21.8281 22.9922 20.8203 24 19.5781 24H3.07812C1.83594 24 0.828125 22.9922 0.828125 21.75V9ZM16.25 14.2969C16.6906 13.8562 16.6906 13.1438 16.25 12.7078C15.8094 12.2719 15.0969 12.2672 14.6609 12.7078L10.2078 17.1609L8.00469 14.9578C7.56406 14.5172 6.85156 14.5172 6.41562 14.9578C5.97969 15.3984 5.975 16.1109 6.41562 16.5469L9.41562 19.5469C9.85625 19.9875 10.5688 19.9875 11.0047 19.5469L16.25 14.2969Z" fill="white"/>
</g>
<defs>
<clipPath id="clip0_1_1508">
<path d="M0.828125 0H21.8281V24H0.828125V0Z" fill="white"/>
</clipPath>
</defs>
</svg>
