<svg width="14" height="17" viewBox="0 0 14 17" fill="none" xmlns="http://www.w3.org/2000/svg">
<g clip-path="url(#clip0_1_1627)">
<path d="M7.00303 4.90635C5.01553 4.90635 3.4124 6.50947 3.4124 8.49697C3.4124 10.4845 5.01553 12.0876 7.00303 12.0876C8.99053 12.0876 10.5937 10.4845 10.5937 8.49697C10.5937 6.50947 8.99053 4.90635 7.00303 4.90635ZM7.00303 10.8313C5.71865 10.8313 4.66865 9.78447 4.66865 8.49697C4.66865 7.20947 5.71553 6.1626 7.00303 6.1626C8.29053 6.1626 9.3374 7.20947 9.3374 8.49697C9.3374 9.78447 8.2874 10.8313 7.00303 10.8313ZM11.578 4.75947C11.578 5.2251 11.203 5.59697 10.7405 5.59697C10.2749 5.59697 9.90303 5.22197 9.90303 4.75947C9.90303 4.29697 10.278 3.92197 10.7405 3.92197C11.203 3.92197 11.578 4.29697 11.578 4.75947ZM13.9562 5.60947C13.903 4.4876 13.6468 3.49385 12.8249 2.6751C12.0062 1.85635 11.0124 1.6001 9.89053 1.54385C8.73428 1.47822 5.26865 1.47822 4.1124 1.54385C2.99365 1.59697 1.9999 1.85322 1.17803 2.67197C0.356152 3.49072 0.103027 4.48447 0.0467773 5.60635C-0.0188477 6.7626 -0.0188477 10.2282 0.0467773 11.3845C0.0999023 12.5063 0.356152 13.5001 1.17803 14.3188C1.9999 15.1376 2.99053 15.3938 4.1124 15.4501C5.26865 15.5157 8.73428 15.5157 9.89053 15.4501C11.0124 15.397 12.0062 15.1407 12.8249 14.3188C13.6437 13.5001 13.8999 12.5063 13.9562 11.3845C14.0218 10.2282 14.0218 6.76572 13.9562 5.60947ZM12.4624 12.6251C12.2187 13.2376 11.7468 13.7095 11.1312 13.9563C10.2093 14.322 8.02178 14.2376 7.00303 14.2376C5.98428 14.2376 3.79365 14.3188 2.8749 13.9563C2.2624 13.7126 1.79053 13.2407 1.54365 12.6251C1.17803 11.7032 1.2624 9.51572 1.2624 8.49697C1.2624 7.47822 1.18115 5.2876 1.54365 4.36885C1.7874 3.75635 2.25928 3.28447 2.8749 3.0376C3.79678 2.67197 5.98428 2.75635 7.00303 2.75635C8.02178 2.75635 10.2124 2.6751 11.1312 3.0376C11.7437 3.28135 12.2155 3.75322 12.4624 4.36885C12.828 5.29072 12.7437 7.47822 12.7437 8.49697C12.7437 9.51572 12.828 11.7063 12.4624 12.6251Z" fill="white"/>
</g>
<defs>
<clipPath id="clip0_1_1627">
<path d="M0 0.5H14V16.5H0V0.5Z" fill="white"/>
</clipPath>
</defs>
</svg>
