<svg width="19" height="24" viewBox="0 0 19 24" fill="none" xmlns="http://www.w3.org/2000/svg">
<g clip-path="url(#clip0_1_1513)">
<path d="M9.98438 0C8.025 0 6.35625 1.25156 5.74219 3H3.98438C2.32969 3 0.984375 4.34531 0.984375 6V21C0.984375 22.6547 2.32969 24 3.98438 24H15.9844C17.6391 24 18.9844 22.6547 18.9844 21V6C18.9844 4.34531 17.6391 3 15.9844 3H14.2266C13.6125 1.25156 11.9438 0 9.98438 0ZM9.98438 3C10.3822 3 10.7637 3.15804 11.045 3.43934C11.3263 3.72064 11.4844 4.10218 11.4844 4.5C11.4844 4.89782 11.3263 5.27936 11.045 5.56066C10.7637 5.84196 10.3822 6 9.98438 6C9.58655 6 9.20502 5.84196 8.92372 5.56066C8.64241 5.27936 8.48438 4.89782 8.48438 4.5C8.48438 4.10218 8.64241 3.72064 8.92372 3.43934C9.20502 3.15804 9.58655 3 9.98438 3ZM4.35938 12.75C4.35938 12.4516 4.4779 12.1655 4.68888 11.9545C4.89986 11.7435 5.18601 11.625 5.48438 11.625C5.78274 11.625 6.06889 11.7435 6.27987 11.9545C6.49085 12.1655 6.60938 12.4516 6.60938 12.75C6.60938 13.0484 6.49085 13.3345 6.27987 13.5455C6.06889 13.7565 5.78274 13.875 5.48438 13.875C5.18601 13.875 4.89986 13.7565 4.68888 13.5455C4.4779 13.3345 4.35938 13.0484 4.35938 12.75ZM9.23438 12H15.2344C15.6469 12 15.9844 12.3375 15.9844 12.75C15.9844 13.1625 15.6469 13.5 15.2344 13.5H9.23438C8.82188 13.5 8.48438 13.1625 8.48438 12.75C8.48438 12.3375 8.82188 12 9.23438 12ZM4.35938 17.25C4.35938 16.9516 4.4779 16.6655 4.68888 16.4545C4.89986 16.2435 5.18601 16.125 5.48438 16.125C5.78274 16.125 6.06889 16.2435 6.27987 16.4545C6.49085 16.6655 6.60938 16.9516 6.60938 17.25C6.60938 17.5484 6.49085 17.8345 6.27987 18.0455C6.06889 18.2565 5.78274 18.375 5.48438 18.375C5.18601 18.375 4.89986 18.2565 4.68888 18.0455C4.4779 17.8345 4.35938 17.5484 4.35938 17.25ZM8.48438 17.25C8.48438 16.8375 8.82188 16.5 9.23438 16.5H15.2344C15.6469 16.5 15.9844 16.8375 15.9844 17.25C15.9844 17.6625 15.6469 18 15.2344 18H9.23438C8.82188 18 8.48438 17.6625 8.48438 17.25Z" fill="white"/>
</g>
<defs>
<clipPath id="clip0_1_1513">
<path d="M0.984375 0H18.9844V24H0.984375V0Z" fill="white"/>
</clipPath>
</defs>
</svg>
