<svg width="12" height="17" viewBox="0 0 12 17" fill="none" xmlns="http://www.w3.org/2000/svg">
<g clip-path="url(#clip0_1_1621)">
<path d="M6.74062 16.1C8.34375 14.0938 12 9.23125 12 6.5C12 3.1875 9.3125 0.5 6 0.5C2.6875 0.5 0 3.1875 0 6.5C0 9.23125 3.65625 14.0938 5.25938 16.1C5.64375 16.5781 6.35625 16.5781 6.74062 16.1ZM6 4.5C6.53043 4.5 7.03914 4.71071 7.41421 5.08579C7.78929 5.46086 8 5.96957 8 6.5C8 7.03043 7.78929 7.53914 7.41421 7.91421C7.03914 8.28929 6.53043 8.5 6 8.5C5.46957 8.5 4.96086 8.28929 4.58579 7.91421C4.21071 7.53914 4 7.03043 4 6.5C4 5.96957 4.21071 5.46086 4.58579 5.08579C4.96086 4.71071 5.46957 4.5 6 4.5Z" fill="white"/>
</g>
<defs>
<clipPath id="clip0_1_1621">
<path d="M0 0.5H12V16.5H0V0.5Z" fill="white"/>
</clipPath>
</defs>
</svg>
