<svg width="16" height="17" viewBox="0 0 16 17" fill="none" xmlns="http://www.w3.org/2000/svg">
<path d="M16 16.5H0V0.5H16V16.5Z" stroke="#E5E7EB"/>
<path d="M1.5 2.5C0.671875 2.5 0 3.17188 0 4C0 4.47187 0.221875 4.91562 0.6 5.2L7.4 10.3C7.75625 10.5656 8.24375 10.5656 8.6 10.3L15.4 5.2C15.7781 4.91562 16 4.47187 16 4C16 3.17188 15.3281 2.5 14.5 2.5H1.5ZM0 6V12.5C0 13.6031 0.896875 14.5 2 14.5H14C15.1031 14.5 16 13.6031 16 12.5V6L9.2 11.1C8.4875 11.6344 7.5125 11.6344 6.8 11.1L0 6Z" fill="white"/>
</svg>
