<svg width="16" height="17" viewBox="0 0 16 17" fill="none" xmlns="http://www.w3.org/2000/svg">
<g clip-path="url(#clip0_1_1630)">
<path d="M15.75 8.5C15.75 12.7812 12.2812 16.25 8 16.25C7.2 16.25 6.43125 16.1281 5.70625 15.9031C6.02188 15.3875 6.49375 14.5437 6.66875 13.8719C6.7625 13.5094 7.15 12.0281 7.15 12.0281C7.40313 12.5094 8.14062 12.9187 8.925 12.9187C11.2625 12.9187 12.9469 10.7688 12.9469 8.09688C12.9469 5.5375 10.8562 3.62188 8.16875 3.62188C4.825 3.62188 3.04688 5.86562 3.04688 8.3125C3.04688 9.45 3.65313 10.8656 4.61875 11.3156C4.76562 11.3844 4.84375 11.3531 4.87813 11.2125C4.90313 11.1062 5.03438 10.5781 5.09375 10.3344C5.1125 10.2563 5.10313 10.1875 5.04063 10.1125C4.725 9.72188 4.46875 9.00937 4.46875 8.34375C4.46875 6.63438 5.7625 4.98125 7.96875 4.98125C9.87187 4.98125 11.2063 6.27812 11.2063 8.13438C11.2063 10.2312 10.1469 11.6844 8.76875 11.6844C8.00938 11.6844 7.4375 11.0563 7.62187 10.2844C7.84062 9.3625 8.2625 8.36875 8.2625 7.70312C8.2625 7.10938 7.94375 6.6125 7.28125 6.6125C6.50313 6.6125 5.87813 7.41563 5.87813 8.49375C5.87813 9.18125 6.10938 9.64375 6.10938 9.64375C6.10938 9.64375 5.34375 12.8875 5.20312 13.4937C5.04688 14.1625 5.10938 15.1062 5.175 15.7188C2.29375 14.5906 0.25 11.7844 0.25 8.5C0.25 4.21875 3.71875 0.75 8 0.75C12.2812 0.75 15.75 4.21875 15.75 8.5Z" fill="white"/>
</g>
<defs>
<clipPath id="clip0_1_1630">
<path d="M0.25 0.5H15.75V16.5H0.25V0.5Z" fill="white"/>
</clipPath>
</defs>
</svg>
