<svg width="33" height="36" viewBox="0 0 33 36" fill="none" xmlns="http://www.w3.org/2000/svg">
<g clip-path="url(#clip0_1_1367)">
<path d="M0.578125 15.1875C0.578125 10.5258 4.35391 6.75 9.01562 6.75H9.57812C10.8227 6.75 11.8281 7.75547 11.8281 9C11.8281 10.2445 10.8227 11.25 9.57812 11.25H9.01562C6.84297 11.25 5.07812 13.0148 5.07812 15.1875V15.75H9.57812C12.0602 15.75 14.0781 17.768 14.0781 20.25V24.75C14.0781 27.232 12.0602 29.25 9.57812 29.25H5.07812C2.59609 29.25 0.578125 27.232 0.578125 24.75V22.5V20.25V15.1875ZM18.5781 15.1875C18.5781 10.5258 22.3539 6.75 27.0156 6.75H27.5781C28.8227 6.75 29.8281 7.75547 29.8281 9C29.8281 10.2445 28.8227 11.25 27.5781 11.25H27.0156C24.843 11.25 23.0781 13.0148 23.0781 15.1875V15.75H27.5781C30.0602 15.75 32.0781 17.768 32.0781 20.25V24.75C32.0781 27.232 30.0602 29.25 27.5781 29.25H23.0781C20.5961 29.25 18.5781 27.232 18.5781 24.75V22.5V20.25V15.1875Z" fill="#EA5285"/>
</g>
<defs>
<clipPath id="clip0_1_1367">
<path d="M0.578125 0H32.0781V36H0.578125V0Z" fill="white"/>
</clipPath>
</defs>
</svg>
