<svg width="19" height="24" viewBox="0 0 19 24" fill="none" xmlns="http://www.w3.org/2000/svg">
<g clip-path="url(#clip0_1_1518)">
<path d="M2.15625 0C1.32656 0 0.65625 0.670312 0.65625 1.5C0.65625 2.32969 1.32656 3 2.15625 3V3.51562C2.15625 5.50313 2.94844 7.41094 4.35469 8.81719L7.53281 12L4.35469 15.1828C2.94844 16.5891 2.15625 18.4969 2.15625 20.4844V21C1.32656 21 0.65625 21.6703 0.65625 22.5C0.65625 23.3297 1.32656 24 2.15625 24H3.65625H15.6562H17.1562C17.9859 24 18.6562 23.3297 18.6562 22.5C18.6562 21.6703 17.9859 21 17.1562 21V20.4844C17.1562 18.4969 16.3641 16.5891 14.9578 15.1828L11.7797 12L14.9625 8.81719C16.3688 7.41094 17.1609 5.50313 17.1609 3.51562V3C17.9906 3 18.6609 2.32969 18.6609 1.5C18.6609 0.670312 17.9906 0 17.1609 0H15.6562H3.65625H2.15625ZM5.15625 3.51562V3H14.1562V3.51562C14.1562 4.40625 13.8938 5.26875 13.4062 6H5.90625C5.42344 5.26875 5.15625 4.40625 5.15625 3.51562ZM5.90625 18C6.07031 17.7516 6.2625 17.5172 6.47344 17.3016L9.65625 14.1234L12.8391 17.3063C13.0547 17.5219 13.2422 17.7563 13.4062 18.0047H5.90625V18Z" fill="white"/>
</g>
<defs>
<clipPath id="clip0_1_1518">
<path d="M0.65625 0H18.6562V24H0.65625V0Z" fill="white"/>
</clipPath>
</defs>
</svg>
